<svg width="283" height="100" viewBox="0 0 283 100" fill="none" xmlns="http://www.w3.org/2000/svg">
<path d="M14.9938 3.71831C14.071 1.7216 11.6329 0.948281 9.728 2.04809C7.80932 3.15584 7.26852 5.67917 8.56471 7.47593L17.911 20.4316C18.5719 21.3478 19.8192 21.6151 20.7976 21.0502C21.7838 20.4808 22.1731 19.2534 21.6954 18.2197L14.9938 3.71831Z" fill="#003090"/>
<path d="M5.5664 13.7604C4.22615 12.8151 2.36349 13.2247 1.54345 14.645C0.717482 16.0756 1.309 17.9067 2.81585 18.5836L13.681 23.4651C14.4495 23.8103 15.3545 23.518 15.7757 22.7884C16.2002 22.0531 15.994 21.1153 15.3001 20.6259L5.5664 13.7604Z" fill="#003090"/>
<path d="M27.8951 5.23168C28.097 3.60406 26.8576 2.15448 25.2184 2.10089C23.5674 2.04692 22.2315 3.43179 22.3448 5.07983L23.1621 16.9631C23.2199 17.8036 23.9044 18.4639 24.7464 18.4914C25.595 18.5191 26.3248 17.8952 26.4293 17.0525L27.8951 5.23168Z" fill="#003090"/>
<path d="M20 76H44V100H31.8033C25.2845 100 20 94.7155 20 88.1967V76Z" fill="#003090"/>
<path d="M20 52H32.1967C38.7155 52 44 57.2845 44 63.8033V76H20V52Z" fill="#005FDC"/>
<path d="M20 39.8033C20 33.2845 25.2845 28 31.8033 28H44V40.1967C44 46.7155 38.7155 52 32.1967 52H20V39.8033Z" fill="#0083FF"/>
<path d="M45.377 28C51.403 28 57.1823 30.5337 61.4433 35.0438C65.7044 39.5539 68.0983 45.6709 68.0983 52.0492C68.0983 58.4274 65.7044 64.5444 61.4434 69.0545C57.1823 73.5646 51.403 76.0984 45.377 76.0984L45.377 28Z" fill="#005FDC"/>
<path d="M282.695 51.8565C282.695 53.1461 282.536 54.2981 282.217 55.3124C281.899 56.3267 281.464 57.2251 280.913 58.0075C280.377 58.7755 279.754 59.4348 279.044 59.9854C278.334 60.536 277.588 60.9852 276.805 61.333C276.037 61.6808 275.255 61.9343 274.458 62.0937C273.675 62.2531 272.936 62.3328 272.241 62.3328H259.461V58.0338C259.461 57.287 260.066 56.6817 260.813 56.6817H272.241C272.965 56.6237 273.617 56.4788 274.197 56.247C274.791 56.0006 275.298 55.6746 275.719 55.2689C276.139 54.8632 276.465 54.3778 276.697 53.8126C276.928 53.233 277.044 52.581 277.044 51.8565V49.2917C276.972 48.5817 276.82 47.9297 276.588 47.3356C276.356 46.7415 276.037 46.2343 275.632 45.8141C275.24 45.3939 274.762 45.0679 274.197 44.8361C273.632 44.5897 272.98 44.4666 272.241 44.4666H259.504C258.751 44.4666 258.178 44.6622 257.787 45.0534C257.396 45.4446 257.2 46.0097 257.2 46.7487V68.6314C257.2 69.3782 256.595 69.9836 255.848 69.9836H251.549V46.7487C251.549 45.2997 251.81 44.0681 252.332 43.0538C252.868 42.0395 253.527 41.2208 254.309 40.5977C255.106 39.9746 255.969 39.5254 256.896 39.2501C257.823 38.9603 258.678 38.8154 259.461 38.8154H272.241C273.516 38.8154 274.661 38.9821 275.675 39.3153C276.689 39.6341 277.58 40.0688 278.348 40.6194C279.131 41.1556 279.79 41.7786 280.326 42.4887C280.877 43.1987 281.326 43.9449 281.674 44.7274C282.036 45.4953 282.297 46.2778 282.456 47.0748C282.616 47.8572 282.695 48.5962 282.695 49.2917V51.8565Z" fill="#444444"/>
<path d="M177.531 69.7476H171.88V56.7065C171.88 55.9675 171.75 55.3082 171.489 54.7286C171.243 54.1345 170.902 53.6274 170.467 53.2072C170.033 52.787 169.518 52.4682 168.924 52.2508C168.345 52.019 167.714 51.9031 167.033 51.9031H157.144V69.7476H151.493V49.0558C151.493 48.6645 151.565 48.3023 151.71 47.969C151.855 47.6213 152.058 47.3242 152.319 47.0779C152.579 46.8171 152.884 46.6142 153.231 46.4693C153.579 46.3244 153.949 46.252 154.34 46.252H167.077C167.787 46.252 168.533 46.3316 169.315 46.491C170.112 46.6504 170.895 46.9113 171.663 47.2735C172.445 47.6213 173.184 48.0705 173.88 48.6211C174.59 49.1572 175.213 49.8165 175.749 50.599C176.3 51.3669 176.734 52.2581 177.053 53.2724C177.372 54.2867 177.531 55.4314 177.531 56.7065V69.7476Z" fill="#444444"/>
<path d="M214.714 69.7476H209.063V56.7065C209.063 55.9675 208.933 55.3082 208.672 54.7286C208.426 54.1345 208.085 53.6274 207.65 53.2072C207.216 52.787 206.701 52.4682 206.107 52.2508C205.528 52.019 204.897 51.9031 204.216 51.9031H194.327V69.7476H188.676V49.0558C188.676 48.6645 188.748 48.3023 188.893 47.969C189.038 47.6213 189.241 47.3242 189.502 47.0779C189.762 46.8171 190.067 46.6142 190.414 46.4693C190.762 46.3244 191.132 46.252 191.523 46.252H204.26C204.97 46.252 205.716 46.3316 206.498 46.491C207.295 46.6504 208.078 46.9113 208.846 47.2735C209.628 47.6213 210.367 48.0705 211.063 48.6211C211.773 49.1572 212.396 49.8165 212.932 50.599C213.483 51.3669 213.917 52.2581 214.236 53.2724C214.555 54.2867 214.714 55.4314 214.714 56.7065V69.7476Z" fill="#444444"/>
<path d="M148.693 40.2049C148.693 40.9516 148.088 41.557 147.341 41.557H144.394C143.647 41.557 143.042 40.9516 143.042 40.2049V37.8013C143.042 37.0546 143.647 36.4492 144.394 36.4492H147.341C148.088 36.4492 148.693 37.0546 148.693 37.8013V40.2049ZM148.693 69.8778H143.042V47.7343C143.042 46.9875 143.647 46.3822 144.394 46.3822H147.341C148.088 46.3822 148.693 46.9875 148.693 47.7343V69.8778Z" fill="#444444"/>
<path d="M185.876 40.2049C185.876 40.9516 185.271 41.557 184.524 41.557H181.577C180.83 41.557 180.225 40.9516 180.225 40.2049V37.8013C180.225 37.0546 180.83 36.4492 181.577 36.4492H184.524C185.271 36.4492 185.876 37.0546 185.876 37.8013V40.2049ZM185.876 69.8778H180.225V47.7343C180.225 46.9875 180.83 46.3822 181.577 46.3822H184.524C185.271 46.3822 185.876 46.9875 185.876 47.7343V69.8778Z" fill="#444444"/>
<path d="M90.5525 69.9141H84.9014V47.7706C84.9014 47.0238 85.5067 46.4185 86.2535 46.4185H89.2004C89.9471 46.4185 90.5525 47.0238 90.5525 47.7706V69.9141Z" fill="#444444"/>
<path d="M77.4647 45.2747H98.2191C98.9658 45.2747 99.5712 44.6694 99.5712 43.9226V41.5191C99.5712 40.7724 98.9658 40.167 98.2191 40.167H77.4647C76.7179 40.167 76.1125 40.7724 76.1125 41.5191V43.9226C76.1125 44.6694 76.7179 45.2747 77.4647 45.2747Z" fill="#444444"/>
<path d="M117.086 51.9031H104.371C103.603 51.9031 103.023 52.0987 102.632 52.4899C102.241 52.8667 102.045 53.4245 102.045 54.1635V69.7476H96.3942V54.1635C96.3942 53.1927 96.5173 52.3233 96.7637 51.5553C97.01 50.7873 97.336 50.1136 97.7417 49.534C98.162 48.9399 98.6401 48.44 99.1763 48.0342C99.7124 47.614 100.27 47.2735 100.85 47.0127C101.444 46.7519 102.038 46.5635 102.632 46.4476C103.241 46.3172 103.806 46.252 104.327 46.252H115.734C116.481 46.252 117.086 46.8573 117.086 47.6041V51.9031Z" fill="#444444"/>
<path d="M119.718 51.9031H132.433C133.201 51.9031 133.781 52.0987 134.172 52.4899C134.563 52.8667 134.759 53.4245 134.759 54.1635V62.6463C134.759 63.3931 135.364 63.9984 136.111 63.9984H140.41V54.1635C140.41 53.1927 140.287 52.3233 140.04 51.5553C139.794 50.7873 139.468 50.1136 139.062 49.534C138.642 48.9399 138.164 48.44 137.628 48.0342C137.092 47.614 136.534 47.2735 135.954 47.0127C135.36 46.7519 134.766 46.5635 134.172 46.4476C133.563 46.3172 132.998 46.252 132.477 46.252H121.07C120.323 46.252 119.718 46.8573 119.718 47.6041V51.9031Z" fill="#444444"/>
<path d="M134.663 65.4486C134.663 64.7018 134.058 64.0964 133.311 64.0964L121.948 64.0964C121.18 64.0964 120.601 63.9008 120.209 63.5096C119.818 63.1328 119.623 62.575 119.623 61.836L113.971 61.836C113.971 62.8068 114.095 63.6762 114.341 64.4442C114.587 65.2122 114.913 65.886 115.319 66.4656C115.739 67.0597 116.217 67.5596 116.754 67.9653C117.29 68.3855 117.848 68.726 118.427 68.9868C119.021 69.2477 119.615 69.436 120.209 69.5519C120.818 69.6824 121.383 69.7476 121.905 69.7476L134.663 69.7476L134.663 65.4486Z" fill="#444444"/>
<path d="M131.718 58.3259C131.718 59.0726 131.113 59.678 130.366 59.678L121.948 59.678C121.18 59.678 120.601 59.8736 120.209 60.2648C119.818 60.6416 119.623 61.1994 119.623 61.9384L113.971 61.9384C113.971 60.9676 114.095 60.0982 114.341 59.3302C114.587 58.5623 114.913 57.8885 115.319 57.3089C115.739 56.7148 116.217 56.2149 116.754 55.8091C117.29 55.3889 117.848 55.0484 118.427 54.7876C119.021 54.5268 119.615 54.3384 120.209 54.2225C120.818 54.0921 121.383 54.0269 121.905 54.0269L130.366 54.0269C131.113 54.0269 131.718 54.6322 131.718 55.379L131.718 58.3259Z" fill="#444444"/>
<path d="M243.447 72.008C243.447 72.9789 243.324 73.8483 243.078 74.6163C242.831 75.3987 242.505 76.0797 242.1 76.6593C241.694 77.2534 241.223 77.7533 240.687 78.1591C240.151 78.5793 239.585 78.9198 238.991 79.1806C238.412 79.4414 237.818 79.6298 237.209 79.7457C236.615 79.8761 236.05 79.9413 235.514 79.9413H225.32V75.6423C225.32 74.8956 225.925 74.2902 226.672 74.2902H235.514C236.282 74.2902 236.854 74.0946 237.231 73.7034C237.608 73.3121 237.796 72.747 237.796 72.008V54.1635C237.796 53.4245 237.608 52.8667 237.231 52.4899C236.854 52.0987 236.282 51.9031 235.514 51.9031H225.32C224.624 51.9031 224.074 52.1204 223.668 52.5551C223.262 52.9753 223.06 53.5115 223.06 54.1635V61.8143C223.06 62.5533 223.255 63.1184 223.646 63.5096C224.038 63.9009 224.61 64.0965 225.363 64.0965H234.162C234.908 64.0965 235.514 64.7018 235.514 65.4486V68.3955C235.514 69.1422 234.908 69.7476 234.162 69.7476H225.32C224.784 69.7476 224.219 69.6896 223.625 69.5737C223.031 69.4433 222.437 69.2477 221.842 68.9869C221.263 68.726 220.705 68.3928 220.169 67.987C219.633 67.5668 219.162 67.0669 218.756 66.4873C218.35 65.8932 218.024 65.2122 217.778 64.4442C217.532 63.6618 217.408 62.7851 217.408 61.8143V54.1635C217.408 53.6274 217.466 53.0623 217.582 52.4682C217.713 51.8741 217.908 51.2873 218.169 50.7076C218.43 50.1136 218.763 49.5484 219.169 49.0123C219.589 48.4762 220.089 48.0053 220.669 47.5995C221.263 47.1938 221.944 46.8678 222.712 46.6214C223.48 46.3751 224.349 46.252 225.32 46.252H235.514C236.05 46.252 236.615 46.3172 237.209 46.4476C237.818 46.5635 238.412 46.7519 238.991 47.0127C239.585 47.2735 240.151 47.614 240.687 48.0342C241.223 48.44 241.694 48.9399 242.1 49.534C242.505 50.1136 242.831 50.7873 243.078 51.5553C243.324 52.3233 243.447 53.1927 243.447 54.1635V72.008Z" fill="#444444"/>
</svg>
